<?xml version="1.0" encoding="UTF-8"?>
<svg xmlns="http://www.w3.org/2000/svg" viewBox="0 0 600 600"
     width="600" height="600" preserveAspectRatio="xMidYMid meet">
  <!-- Core kernel visual surface — auto-generated by render_svg.py
       Composition: Sierpinski + Borromean rings + Z/3 orbits + A_0 pulse
       All rotations complete 120° per loop (Z/3 symmetry → visually full).
       Transparent background: blends with light or dark parent.
  -->

  <!-- Sierpinski triangulation: self-similarity surface -->
  <g id="sierpinski" stroke="#5a6482" fill="none">
    <g stroke-opacity="0.55" stroke-width="1.3">
      <polygon points="300.00,42.00 523.43,429.00 76.57,429.00" />
    </g>
    <g stroke-opacity="0.429" stroke-width="1.1500000000000001">
      <polygon points="300.00,42.00 411.72,235.50 188.28,235.50" />
      <polygon points="411.72,235.50 523.43,429.00 300.00,429.00" />
      <polygon points="188.28,235.50 300.00,429.00 76.57,429.00" />
    </g>
    <g stroke-opacity="0.335" stroke-width="1.0">
      <polygon points="300.00,42.00 355.86,138.75 244.14,138.75" />
      <polygon points="355.86,138.75 411.72,235.50 300.00,235.50" />
      <polygon points="244.14,138.75 300.00,235.50 188.28,235.50" />
      <polygon points="411.72,235.50 467.58,332.25 355.86,332.25" />
      <polygon points="467.58,332.25 523.43,429.00 411.72,429.00" />
      <polygon points="355.86,332.25 411.72,429.00 300.00,429.00" />
      <polygon points="188.28,235.50 244.14,332.25 132.42,332.25" />
      <polygon points="244.14,332.25 300.00,429.00 188.28,429.00" />
      <polygon points="132.42,332.25 188.28,429.00 76.57,429.00" />
    </g>
    <g stroke-opacity="0.261" stroke-width="0.8500000000000001">
      <polygon points="300.00,42.00 327.93,90.38 272.07,90.38" />
      <polygon points="327.93,90.38 355.86,138.75 300.00,138.75" />
      <polygon points="272.07,90.38 300.00,138.75 244.14,138.75" />
      <polygon points="355.86,138.75 383.79,187.12 327.93,187.12" />
      <polygon points="383.79,187.12 411.72,235.50 355.86,235.50" />
      <polygon points="327.93,187.12 355.86,235.50 300.00,235.50" />
      <polygon points="244.14,138.75 272.07,187.12 216.21,187.13" />
      <polygon points="272.07,187.12 300.00,235.50 244.14,235.50" />
      <polygon points="216.21,187.13 244.14,235.50 188.28,235.50" />
      <polygon points="411.72,235.50 439.65,283.87 383.79,283.88" />
      <polygon points="439.65,283.87 467.58,332.25 411.72,332.25" />
      <polygon points="383.79,283.88 411.72,332.25 355.86,332.25" />
      <polygon points="467.58,332.25 495.51,380.62 439.65,380.62" />
      <polygon points="495.51,380.62 523.43,429.00 467.58,429.00" />
      <polygon points="439.65,380.62 467.58,429.00 411.72,429.00" />
      <polygon points="355.86,332.25 383.79,380.62 327.93,380.62" />
      <polygon points="383.79,380.62 411.72,429.00 355.86,429.00" />
      <polygon points="327.93,380.62 355.86,429.00 300.00,429.00" />
      <polygon points="188.28,235.50 216.21,283.88 160.35,283.88" />
      <polygon points="216.21,283.88 244.14,332.25 188.28,332.25" />
      <polygon points="160.35,283.88 188.28,332.25 132.42,332.25" />
      <polygon points="244.14,332.25 272.07,380.62 216.21,380.62" />
      <polygon points="272.07,380.62 300.00,429.00 244.14,429.00" />
      <polygon points="216.21,380.62 244.14,429.00 188.28,429.00" />
      <polygon points="132.42,332.25 160.35,380.63 104.49,380.63" />
      <polygon points="160.35,380.63 188.28,429.00 132.42,429.00" />
      <polygon points="104.49,380.63 132.42,429.00 76.57,429.00" />
    </g>
    <g stroke-opacity="0.204" stroke-width="0.7000000000000001">
      <polygon points="300.00,42.00 313.96,66.19 286.04,66.19" />
      <polygon points="313.96,66.19 327.93,90.38 300.00,90.38" />
      <polygon points="286.04,66.19 300.00,90.38 272.07,90.38" />
      <polygon points="327.93,90.38 341.89,114.56 313.96,114.56" />
      <polygon points="341.89,114.56 355.86,138.75 327.93,138.75" />
      <polygon points="313.96,114.56 327.93,138.75 300.00,138.75" />
      <polygon points="272.07,90.38 286.04,114.56 258.11,114.56" />
      <polygon points="286.04,114.56 300.00,138.75 272.07,138.75" />
      <polygon points="258.11,114.56 272.07,138.75 244.14,138.75" />
      <polygon points="355.86,138.75 369.82,162.94 341.89,162.94" />
      <polygon points="369.82,162.94 383.79,187.12 355.86,187.12" />
      <polygon points="341.89,162.94 355.86,187.12 327.93,187.12" />
      <polygon points="383.79,187.12 397.75,211.31 369.82,211.31" />
      <polygon points="397.75,211.31 411.72,235.50 383.79,235.50" />
      <polygon points="369.82,211.31 383.79,235.50 355.86,235.50" />
      <polygon points="327.93,187.12 341.89,211.31 313.96,211.31" />
      <polygon points="341.89,211.31 355.86,235.50 327.93,235.50" />
      <polygon points="313.96,211.31 327.93,235.50 300.00,235.50" />
      <polygon points="244.14,138.75 258.11,162.94 230.18,162.94" />
      <polygon points="258.11,162.94 272.07,187.12 244.14,187.13" />
      <polygon points="230.18,162.94 244.14,187.13 216.21,187.13" />
      <polygon points="272.07,187.12 286.04,211.31 258.11,211.31" />
      <polygon points="286.04,211.31 300.00,235.50 272.07,235.50" />
      <polygon points="258.11,211.31 272.07,235.50 244.14,235.50" />
      <polygon points="216.21,187.13 230.18,211.31 202.25,211.31" />
      <polygon points="230.18,211.31 244.14,235.50 216.21,235.50" />
      <polygon points="202.25,211.31 216.21,235.50 188.28,235.50" />
      <polygon points="411.72,235.50 425.68,259.69 397.75,259.69" />
      <polygon points="425.68,259.69 439.65,283.87 411.72,283.88" />
      <polygon points="397.75,259.69 411.72,283.88 383.79,283.88" />
      <polygon points="439.65,283.87 453.61,308.06 425.68,308.06" />
      <polygon points="453.61,308.06 467.58,332.25 439.65,332.25" />
      <polygon points="425.68,308.06 439.65,332.25 411.72,332.25" />
      <polygon points="383.79,283.88 397.75,308.06 369.82,308.06" />
      <polygon points="397.75,308.06 411.72,332.25 383.79,332.25" />
      <polygon points="369.82,308.06 383.79,332.25 355.86,332.25" />
      <polygon points="467.58,332.25 481.54,356.44 453.61,356.44" />
      <polygon points="481.54,356.44 495.51,380.62 467.58,380.62" />
      <polygon points="453.61,356.44 467.58,380.62 439.65,380.62" />
      <polygon points="495.51,380.62 509.47,404.81 481.54,404.81" />
      <polygon points="509.47,404.81 523.43,429.00 495.51,429.00" />
      <polygon points="481.54,404.81 495.51,429.00 467.58,429.00" />
      <polygon points="439.65,380.62 453.61,404.81 425.68,404.81" />
      <polygon points="453.61,404.81 467.58,429.00 439.65,429.00" />
      <polygon points="425.68,404.81 439.65,429.00 411.72,429.00" />
      <polygon points="355.86,332.25 369.82,356.44 341.89,356.44" />
      <polygon points="369.82,356.44 383.79,380.62 355.86,380.62" />
      <polygon points="341.89,356.44 355.86,380.62 327.93,380.62" />
      <polygon points="383.79,380.62 397.75,404.81 369.82,404.81" />
      <polygon points="397.75,404.81 411.72,429.00 383.79,429.00" />
      <polygon points="369.82,404.81 383.79,429.00 355.86,429.00" />
      <polygon points="327.93,380.62 341.89,404.81 313.96,404.81" />
      <polygon points="341.89,404.81 355.86,429.00 327.93,429.00" />
      <polygon points="313.96,404.81 327.93,429.00 300.00,429.00" />
      <polygon points="188.28,235.50 202.25,259.69 174.32,259.69" />
      <polygon points="202.25,259.69 216.21,283.88 188.28,283.88" />
      <polygon points="174.32,259.69 188.28,283.88 160.35,283.88" />
      <polygon points="216.21,283.88 230.18,308.06 202.25,308.06" />
      <polygon points="230.18,308.06 244.14,332.25 216.21,332.25" />
      <polygon points="202.25,308.06 216.21,332.25 188.28,332.25" />
      <polygon points="160.35,283.88 174.32,308.06 146.39,308.06" />
      <polygon points="174.32,308.06 188.28,332.25 160.35,332.25" />
      <polygon points="146.39,308.06 160.35,332.25 132.42,332.25" />
      <polygon points="244.14,332.25 258.11,356.44 230.18,356.44" />
      <polygon points="258.11,356.44 272.07,380.62 244.14,380.62" />
      <polygon points="230.18,356.44 244.14,380.62 216.21,380.62" />
      <polygon points="272.07,380.62 286.04,404.81 258.11,404.81" />
      <polygon points="286.04,404.81 300.00,429.00 272.07,429.00" />
      <polygon points="258.11,404.81 272.07,429.00 244.14,429.00" />
      <polygon points="216.21,380.62 230.18,404.81 202.25,404.81" />
      <polygon points="230.18,404.81 244.14,429.00 216.21,429.00" />
      <polygon points="202.25,404.81 216.21,429.00 188.28,429.00" />
      <polygon points="132.42,332.25 146.39,356.44 118.46,356.44" />
      <polygon points="146.39,356.44 160.35,380.63 132.42,380.63" />
      <polygon points="118.46,356.44 132.42,380.63 104.49,380.63" />
      <polygon points="160.35,380.63 174.32,404.81 146.39,404.81" />
      <polygon points="174.32,404.81 188.28,429.00 160.35,429.00" />
      <polygon points="146.39,404.81 160.35,429.00 132.42,429.00" />
      <polygon points="104.49,380.63 118.46,404.81 90.53,404.81" />
      <polygon points="118.46,404.81 132.42,429.00 104.49,429.00" />
      <polygon points="90.53,404.81 104.49,429.00 76.57,429.00" />
    </g>
    <g stroke-opacity="0.159" stroke-width="0.55">
      <polygon points="300.00,42.00 306.98,54.09 293.02,54.09" />
      <polygon points="306.98,54.09 313.96,66.19 300.00,66.19" />
      <polygon points="293.02,54.09 300.00,66.19 286.04,66.19" />
      <polygon points="313.96,66.19 320.95,78.28 306.98,78.28" />
      <polygon points="320.95,78.28 327.93,90.38 313.96,90.38" />
      <polygon points="306.98,78.28 313.96,90.38 300.00,90.38" />
      <polygon points="286.04,66.19 293.02,78.28 279.05,78.28" />
      <polygon points="293.02,78.28 300.00,90.38 286.04,90.38" />
      <polygon points="279.05,78.28 286.04,90.38 272.07,90.38" />
      <polygon points="327.93,90.38 334.91,102.47 320.95,102.47" />
      <polygon points="334.91,102.47 341.89,114.56 327.93,114.56" />
      <polygon points="320.95,102.47 327.93,114.56 313.96,114.56" />
      <polygon points="341.89,114.56 348.88,126.66 334.91,126.66" />
      <polygon points="348.88,126.66 355.86,138.75 341.89,138.75" />
      <polygon points="334.91,126.66 341.89,138.75 327.93,138.75" />
      <polygon points="313.96,114.56 320.95,126.66 306.98,126.66" />
      <polygon points="320.95,126.66 327.93,138.75 313.96,138.75" />
      <polygon points="306.98,126.66 313.96,138.75 300.00,138.75" />
      <polygon points="272.07,90.38 279.05,102.47 265.09,102.47" />
      <polygon points="279.05,102.47 286.04,114.56 272.07,114.56" />
      <polygon points="265.09,102.47 272.07,114.56 258.11,114.56" />
      <polygon points="286.04,114.56 293.02,126.66 279.05,126.66" />
      <polygon points="293.02,126.66 300.00,138.75 286.04,138.75" />
      <polygon points="279.05,126.66 286.04,138.75 272.07,138.75" />
      <polygon points="258.11,114.56 265.09,126.66 251.12,126.66" />
      <polygon points="265.09,126.66 272.07,138.75 258.11,138.75" />
      <polygon points="251.12,126.66 258.11,138.75 244.14,138.75" />
      <polygon points="355.86,138.75 362.84,150.84 348.88,150.84" />
      <polygon points="362.84,150.84 369.82,162.94 355.86,162.94" />
      <polygon points="348.88,150.84 355.86,162.94 341.89,162.94" />
      <polygon points="369.82,162.94 376.81,175.03 362.84,175.03" />
      <polygon points="376.81,175.03 383.79,187.12 369.82,187.12" />
      <polygon points="362.84,175.03 369.82,187.12 355.86,187.12" />
      <polygon points="341.89,162.94 348.88,175.03 334.91,175.03" />
      <polygon points="348.88,175.03 355.86,187.12 341.89,187.12" />
      <polygon points="334.91,175.03 341.89,187.12 327.93,187.12" />
      <polygon points="383.79,187.12 390.77,199.22 376.81,199.22" />
      <polygon points="390.77,199.22 397.75,211.31 383.79,211.31" />
      <polygon points="376.81,199.22 383.79,211.31 369.82,211.31" />
      <polygon points="397.75,211.31 404.73,223.41 390.77,223.41" />
      <polygon points="404.73,223.41 411.72,235.50 397.75,235.50" />
      <polygon points="390.77,223.41 397.75,235.50 383.79,235.50" />
      <polygon points="369.82,211.31 376.81,223.41 362.84,223.41" />
      <polygon points="376.81,223.41 383.79,235.50 369.82,235.50" />
      <polygon points="362.84,223.41 369.82,235.50 355.86,235.50" />
      <polygon points="327.93,187.12 334.91,199.22 320.95,199.22" />
      <polygon points="334.91,199.22 341.89,211.31 327.93,211.31" />
      <polygon points="320.95,199.22 327.93,211.31 313.96,211.31" />
      <polygon points="341.89,211.31 348.88,223.41 334.91,223.41" />
      <polygon points="348.88,223.41 355.86,235.50 341.89,235.50" />
      <polygon points="334.91,223.41 341.89,235.50 327.93,235.50" />
      <polygon points="313.96,211.31 320.95,223.41 306.98,223.41" />
      <polygon points="320.95,223.41 327.93,235.50 313.96,235.50" />
      <polygon points="306.98,223.41 313.96,235.50 300.00,235.50" />
      <polygon points="244.14,138.75 251.12,150.84 237.16,150.84" />
      <polygon points="251.12,150.84 258.11,162.94 244.14,162.94" />
      <polygon points="237.16,150.84 244.14,162.94 230.18,162.94" />
      <polygon points="258.11,162.94 265.09,175.03 251.12,175.03" />
      <polygon points="265.09,175.03 272.07,187.12 258.11,187.12" />
      <polygon points="251.12,175.03 258.11,187.12 244.14,187.13" />
      <polygon points="230.18,162.94 237.16,175.03 223.19,175.03" />
      <polygon points="237.16,175.03 244.14,187.13 230.18,187.13" />
      <polygon points="223.19,175.03 230.18,187.13 216.21,187.13" />
      <polygon points="272.07,187.12 279.05,199.22 265.09,199.22" />
      <polygon points="279.05,199.22 286.04,211.31 272.07,211.31" />
      <polygon points="265.09,199.22 272.07,211.31 258.11,211.31" />
      <polygon points="286.04,211.31 293.02,223.41 279.05,223.41" />
      <polygon points="293.02,223.41 300.00,235.50 286.04,235.50" />
      <polygon points="279.05,223.41 286.04,235.50 272.07,235.50" />
      <polygon points="258.11,211.31 265.09,223.41 251.12,223.41" />
      <polygon points="265.09,223.41 272.07,235.50 258.11,235.50" />
      <polygon points="251.12,223.41 258.11,235.50 244.14,235.50" />
      <polygon points="216.21,187.13 223.19,199.22 209.23,199.22" />
      <polygon points="223.19,199.22 230.18,211.31 216.21,211.31" />
      <polygon points="209.23,199.22 216.21,211.31 202.25,211.31" />
      <polygon points="230.18,211.31 237.16,223.41 223.19,223.41" />
      <polygon points="237.16,223.41 244.14,235.50 230.18,235.50" />
      <polygon points="223.19,223.41 230.18,235.50 216.21,235.50" />
      <polygon points="202.25,211.31 209.23,223.41 195.27,223.41" />
      <polygon points="209.23,223.41 216.21,235.50 202.25,235.50" />
      <polygon points="195.27,223.41 202.25,235.50 188.28,235.50" />
      <polygon points="411.72,235.50 418.70,247.59 404.73,247.59" />
      <polygon points="418.70,247.59 425.68,259.69 411.72,259.69" />
      <polygon points="404.73,247.59 411.72,259.69 397.75,259.69" />
      <polygon points="425.68,259.69 432.66,271.78 418.70,271.78" />
      <polygon points="432.66,271.78 439.65,283.87 425.68,283.88" />
      <polygon points="418.70,271.78 425.68,283.88 411.72,283.88" />
      <polygon points="397.75,259.69 404.73,271.78 390.77,271.78" />
      <polygon points="404.73,271.78 411.72,283.88 397.75,283.88" />
      <polygon points="390.77,271.78 397.75,283.88 383.79,283.88" />
      <polygon points="439.65,283.87 446.63,295.97 432.66,295.97" />
      <polygon points="446.63,295.97 453.61,308.06 439.65,308.06" />
      <polygon points="432.66,295.97 439.65,308.06 425.68,308.06" />
      <polygon points="453.61,308.06 460.59,320.16 446.63,320.16" />
      <polygon points="460.59,320.16 467.58,332.25 453.61,332.25" />
      <polygon points="446.63,320.16 453.61,332.25 439.65,332.25" />
      <polygon points="425.68,308.06 432.66,320.16 418.70,320.16" />
      <polygon points="432.66,320.16 439.65,332.25 425.68,332.25" />
      <polygon points="418.70,320.16 425.68,332.25 411.72,332.25" />
      <polygon points="383.79,283.88 390.77,295.97 376.81,295.97" />
      <polygon points="390.77,295.97 397.75,308.06 383.79,308.06" />
      <polygon points="376.81,295.97 383.79,308.06 369.82,308.06" />
      <polygon points="397.75,308.06 404.73,320.16 390.77,320.16" />
      <polygon points="404.73,320.16 411.72,332.25 397.75,332.25" />
      <polygon points="390.77,320.16 397.75,332.25 383.79,332.25" />
      <polygon points="369.82,308.06 376.81,320.16 362.84,320.16" />
      <polygon points="376.81,320.16 383.79,332.25 369.82,332.25" />
      <polygon points="362.84,320.16 369.82,332.25 355.86,332.25" />
      <polygon points="467.58,332.25 474.56,344.34 460.59,344.34" />
      <polygon points="474.56,344.34 481.54,356.44 467.58,356.44" />
      <polygon points="460.59,344.34 467.58,356.44 453.61,356.44" />
      <polygon points="481.54,356.44 488.52,368.53 474.56,368.53" />
      <polygon points="488.52,368.53 495.51,380.62 481.54,380.62" />
      <polygon points="474.56,368.53 481.54,380.62 467.58,380.62" />
      <polygon points="453.61,356.44 460.59,368.53 446.63,368.53" />
      <polygon points="460.59,368.53 467.58,380.62 453.61,380.62" />
      <polygon points="446.63,368.53 453.61,380.62 439.65,380.62" />
      <polygon points="495.51,380.62 502.49,392.72 488.52,392.72" />
      <polygon points="502.49,392.72 509.47,404.81 495.51,404.81" />
      <polygon points="488.52,392.72 495.51,404.81 481.54,404.81" />
      <polygon points="509.47,404.81 516.45,416.91 502.49,416.91" />
      <polygon points="516.45,416.91 523.43,429.00 509.47,429.00" />
      <polygon points="502.49,416.91 509.47,429.00 495.51,429.00" />
      <polygon points="481.54,404.81 488.52,416.91 474.56,416.91" />
      <polygon points="488.52,416.91 495.51,429.00 481.54,429.00" />
      <polygon points="474.56,416.91 481.54,429.00 467.58,429.00" />
      <polygon points="439.65,380.62 446.63,392.72 432.66,392.72" />
      <polygon points="446.63,392.72 453.61,404.81 439.65,404.81" />
      <polygon points="432.66,392.72 439.65,404.81 425.68,404.81" />
      <polygon points="453.61,404.81 460.59,416.91 446.63,416.91" />
      <polygon points="460.59,416.91 467.58,429.00 453.61,429.00" />
      <polygon points="446.63,416.91 453.61,429.00 439.65,429.00" />
      <polygon points="425.68,404.81 432.66,416.91 418.70,416.91" />
      <polygon points="432.66,416.91 439.65,429.00 425.68,429.00" />
      <polygon points="418.70,416.91 425.68,429.00 411.72,429.00" />
      <polygon points="355.86,332.25 362.84,344.34 348.88,344.34" />
      <polygon points="362.84,344.34 369.82,356.44 355.86,356.44" />
      <polygon points="348.88,344.34 355.86,356.44 341.89,356.44" />
      <polygon points="369.82,356.44 376.81,368.53 362.84,368.53" />
      <polygon points="376.81,368.53 383.79,380.62 369.82,380.62" />
      <polygon points="362.84,368.53 369.82,380.62 355.86,380.62" />
      <polygon points="341.89,356.44 348.88,368.53 334.91,368.53" />
      <polygon points="348.88,368.53 355.86,380.62 341.89,380.62" />
      <polygon points="334.91,368.53 341.89,380.62 327.93,380.62" />
      <polygon points="383.79,380.62 390.77,392.72 376.81,392.72" />
      <polygon points="390.77,392.72 397.75,404.81 383.79,404.81" />
      <polygon points="376.81,392.72 383.79,404.81 369.82,404.81" />
      <polygon points="397.75,404.81 404.73,416.91 390.77,416.91" />
      <polygon points="404.73,416.91 411.72,429.00 397.75,429.00" />
      <polygon points="390.77,416.91 397.75,429.00 383.79,429.00" />
      <polygon points="369.82,404.81 376.81,416.91 362.84,416.91" />
      <polygon points="376.81,416.91 383.79,429.00 369.82,429.00" />
      <polygon points="362.84,416.91 369.82,429.00 355.86,429.00" />
      <polygon points="327.93,380.62 334.91,392.72 320.95,392.72" />
      <polygon points="334.91,392.72 341.89,404.81 327.93,404.81" />
      <polygon points="320.95,392.72 327.93,404.81 313.96,404.81" />
      <polygon points="341.89,404.81 348.88,416.91 334.91,416.91" />
      <polygon points="348.88,416.91 355.86,429.00 341.89,429.00" />
      <polygon points="334.91,416.91 341.89,429.00 327.93,429.00" />
      <polygon points="313.96,404.81 320.95,416.91 306.98,416.91" />
      <polygon points="320.95,416.91 327.93,429.00 313.96,429.00" />
      <polygon points="306.98,416.91 313.96,429.00 300.00,429.00" />
      <polygon points="188.28,235.50 195.27,247.59 181.30,247.59" />
      <polygon points="195.27,247.59 202.25,259.69 188.28,259.69" />
      <polygon points="181.30,247.59 188.28,259.69 174.32,259.69" />
      <polygon points="202.25,259.69 209.23,271.78 195.27,271.78" />
      <polygon points="209.23,271.78 216.21,283.88 202.25,283.88" />
      <polygon points="195.27,271.78 202.25,283.88 188.28,283.88" />
      <polygon points="174.32,259.69 181.30,271.78 167.34,271.78" />
      <polygon points="181.30,271.78 188.28,283.88 174.32,283.88" />
      <polygon points="167.34,271.78 174.32,283.88 160.35,283.88" />
      <polygon points="216.21,283.88 223.19,295.97 209.23,295.97" />
      <polygon points="223.19,295.97 230.18,308.06 216.21,308.06" />
      <polygon points="209.23,295.97 216.21,308.06 202.25,308.06" />
      <polygon points="230.18,308.06 237.16,320.16 223.19,320.16" />
      <polygon points="237.16,320.16 244.14,332.25 230.18,332.25" />
      <polygon points="223.19,320.16 230.18,332.25 216.21,332.25" />
      <polygon points="202.25,308.06 209.23,320.16 195.27,320.16" />
      <polygon points="209.23,320.16 216.21,332.25 202.25,332.25" />
      <polygon points="195.27,320.16 202.25,332.25 188.28,332.25" />
      <polygon points="160.35,283.88 167.34,295.97 153.37,295.97" />
      <polygon points="167.34,295.97 174.32,308.06 160.35,308.06" />
      <polygon points="153.37,295.97 160.35,308.06 146.39,308.06" />
      <polygon points="174.32,308.06 181.30,320.16 167.34,320.16" />
      <polygon points="181.30,320.16 188.28,332.25 174.32,332.25" />
      <polygon points="167.34,320.16 174.32,332.25 160.35,332.25" />
      <polygon points="146.39,308.06 153.37,320.16 139.41,320.16" />
      <polygon points="153.37,320.16 160.35,332.25 146.39,332.25" />
      <polygon points="139.41,320.16 146.39,332.25 132.42,332.25" />
      <polygon points="244.14,332.25 251.12,344.34 237.16,344.34" />
      <polygon points="251.12,344.34 258.11,356.44 244.14,356.44" />
      <polygon points="237.16,344.34 244.14,356.44 230.18,356.44" />
      <polygon points="258.11,356.44 265.09,368.53 251.12,368.53" />
      <polygon points="265.09,368.53 272.07,380.62 258.11,380.62" />
      <polygon points="251.12,368.53 258.11,380.62 244.14,380.62" />
      <polygon points="230.18,356.44 237.16,368.53 223.19,368.53" />
      <polygon points="237.16,368.53 244.14,380.62 230.18,380.62" />
      <polygon points="223.19,368.53 230.18,380.62 216.21,380.62" />
      <polygon points="272.07,380.62 279.05,392.72 265.09,392.72" />
      <polygon points="279.05,392.72 286.04,404.81 272.07,404.81" />
      <polygon points="265.09,392.72 272.07,404.81 258.11,404.81" />
      <polygon points="286.04,404.81 293.02,416.91 279.05,416.91" />
      <polygon points="293.02,416.91 300.00,429.00 286.04,429.00" />
      <polygon points="279.05,416.91 286.04,429.00 272.07,429.00" />
      <polygon points="258.11,404.81 265.09,416.91 251.12,416.91" />
      <polygon points="265.09,416.91 272.07,429.00 258.11,429.00" />
      <polygon points="251.12,416.91 258.11,429.00 244.14,429.00" />
      <polygon points="216.21,380.62 223.19,392.72 209.23,392.72" />
      <polygon points="223.19,392.72 230.18,404.81 216.21,404.81" />
      <polygon points="209.23,392.72 216.21,404.81 202.25,404.81" />
      <polygon points="230.18,404.81 237.16,416.91 223.19,416.91" />
      <polygon points="237.16,416.91 244.14,429.00 230.18,429.00" />
      <polygon points="223.19,416.91 230.18,429.00 216.21,429.00" />
      <polygon points="202.25,404.81 209.23,416.91 195.27,416.91" />
      <polygon points="209.23,416.91 216.21,429.00 202.25,429.00" />
      <polygon points="195.27,416.91 202.25,429.00 188.28,429.00" />
      <polygon points="132.42,332.25 139.41,344.34 125.44,344.34" />
      <polygon points="139.41,344.34 146.39,356.44 132.42,356.44" />
      <polygon points="125.44,344.34 132.42,356.44 118.46,356.44" />
      <polygon points="146.39,356.44 153.37,368.53 139.41,368.53" />
      <polygon points="153.37,368.53 160.35,380.63 146.39,380.63" />
      <polygon points="139.41,368.53 146.39,380.63 132.42,380.63" />
      <polygon points="118.46,356.44 125.44,368.53 111.48,368.53" />
      <polygon points="125.44,368.53 132.42,380.63 118.46,380.63" />
      <polygon points="111.48,368.53 118.46,380.63 104.49,380.63" />
      <polygon points="160.35,380.63 167.34,392.72 153.37,392.72" />
      <polygon points="167.34,392.72 174.32,404.81 160.35,404.81" />
      <polygon points="153.37,392.72 160.35,404.81 146.39,404.81" />
      <polygon points="174.32,404.81 181.30,416.91 167.34,416.91" />
      <polygon points="181.30,416.91 188.28,429.00 174.32,429.00" />
      <polygon points="167.34,416.91 174.32,429.00 160.35,429.00" />
      <polygon points="146.39,404.81 153.37,416.91 139.41,416.91" />
      <polygon points="153.37,416.91 160.35,429.00 146.39,429.00" />
      <polygon points="139.41,416.91 146.39,429.00 132.42,429.00" />
      <polygon points="104.49,380.63 111.48,392.72 97.51,392.72" />
      <polygon points="111.48,392.72 118.46,404.81 104.49,404.81" />
      <polygon points="97.51,392.72 104.49,404.81 90.53,404.81" />
      <polygon points="118.46,404.81 125.44,416.91 111.48,416.91" />
      <polygon points="125.44,416.91 132.42,429.00 118.46,429.00" />
      <polygon points="111.48,416.91 118.46,429.00 104.49,429.00" />
      <polygon points="90.53,404.81 97.51,416.91 83.55,416.91" />
      <polygon points="97.51,416.91 104.49,429.00 90.53,429.00" />
      <polygon points="83.55,416.91 90.53,429.00 76.57,429.00" />
    </g>
    <g stroke-opacity="0.124" stroke-width="0.40000000000000013">
      <polygon points="300.00,42.00 303.49,48.05 296.51,48.05" />
      <polygon points="303.49,48.05 306.98,54.09 300.00,54.09" />
      <polygon points="296.51,48.05 300.00,54.09 293.02,54.09" />
      <polygon points="306.98,54.09 310.47,60.14 303.49,60.14" />
      <polygon points="310.47,60.14 313.96,66.19 306.98,66.19" />
      <polygon points="303.49,60.14 306.98,66.19 300.00,66.19" />
      <polygon points="293.02,54.09 296.51,60.14 289.53,60.14" />
      <polygon points="296.51,60.14 300.00,66.19 293.02,66.19" />
      <polygon points="289.53,60.14 293.02,66.19 286.04,66.19" />
      <polygon points="313.96,66.19 317.46,72.23 310.47,72.23" />
      <polygon points="317.46,72.23 320.95,78.28 313.96,78.28" />
      <polygon points="310.47,72.23 313.96,78.28 306.98,78.28" />
      <polygon points="320.95,78.28 324.44,84.33 317.46,84.33" />
      <polygon points="324.44,84.33 327.93,90.38 320.95,90.38" />
      <polygon points="317.46,84.33 320.95,90.38 313.96,90.38" />
      <polygon points="306.98,78.28 310.47,84.33 303.49,84.33" />
      <polygon points="310.47,84.33 313.96,90.38 306.98,90.38" />
      <polygon points="303.49,84.33 306.98,90.38 300.00,90.38" />
      <polygon points="286.04,66.19 289.53,72.23 282.54,72.23" />
      <polygon points="289.53,72.23 293.02,78.28 286.04,78.28" />
      <polygon points="282.54,72.23 286.04,78.28 279.05,78.28" />
      <polygon points="293.02,78.28 296.51,84.33 289.53,84.33" />
      <polygon points="296.51,84.33 300.00,90.38 293.02,90.38" />
      <polygon points="289.53,84.33 293.02,90.38 286.04,90.38" />
      <polygon points="279.05,78.28 282.54,84.33 275.56,84.33" />
      <polygon points="282.54,84.33 286.04,90.38 279.05,90.38" />
      <polygon points="275.56,84.33 279.05,90.38 272.07,90.38" />
      <polygon points="327.93,90.38 331.42,96.42 324.44,96.42" />
      <polygon points="331.42,96.42 334.91,102.47 327.93,102.47" />
      <polygon points="324.44,96.42 327.93,102.47 320.95,102.47" />
      <polygon points="334.91,102.47 338.40,108.52 331.42,108.52" />
      <polygon points="338.40,108.52 341.89,114.56 334.91,114.56" />
      <polygon points="331.42,108.52 334.91,114.56 327.93,114.56" />
      <polygon points="320.95,102.47 324.44,108.52 317.46,108.52" />
      <polygon points="324.44,108.52 327.93,114.56 320.95,114.56" />
      <polygon points="317.46,108.52 320.95,114.56 313.96,114.56" />
      <polygon points="341.89,114.56 345.39,120.61 338.40,120.61" />
      <polygon points="345.39,120.61 348.88,126.66 341.89,126.66" />
      <polygon points="338.40,120.61 341.89,126.66 334.91,126.66" />
      <polygon points="348.88,126.66 352.37,132.70 345.39,132.70" />
      <polygon points="352.37,132.70 355.86,138.75 348.88,138.75" />
      <polygon points="345.39,132.70 348.88,138.75 341.89,138.75" />
      <polygon points="334.91,126.66 338.40,132.70 331.42,132.70" />
      <polygon points="338.40,132.70 341.89,138.75 334.91,138.75" />
      <polygon points="331.42,132.70 334.91,138.75 327.93,138.75" />
      <polygon points="313.96,114.56 317.46,120.61 310.47,120.61" />
      <polygon points="317.46,120.61 320.95,126.66 313.96,126.66" />
      <polygon points="310.47,120.61 313.96,126.66 306.98,126.66" />
      <polygon points="320.95,126.66 324.44,132.70 317.46,132.70" />
      <polygon points="324.44,132.70 327.93,138.75 320.95,138.75" />
      <polygon points="317.46,132.70 320.95,138.75 313.96,138.75" />
      <polygon points="306.98,126.66 310.47,132.70 303.49,132.70" />
      <polygon points="310.47,132.70 313.96,138.75 306.98,138.75" />
      <polygon points="303.49,132.70 306.98,138.75 300.00,138.75" />
      <polygon points="272.07,90.38 275.56,96.42 268.58,96.42" />
      <polygon points="275.56,96.42 279.05,102.47 272.07,102.47" />
      <polygon points="268.58,96.42 272.07,102.47 265.09,102.47" />
      <polygon points="279.05,102.47 282.54,108.52 275.56,108.52" />
      <polygon points="282.54,108.52 286.04,114.56 279.05,114.56" />
      <polygon points="275.56,108.52 279.05,114.56 272.07,114.56" />
      <polygon points="265.09,102.47 268.58,108.52 261.60,108.52" />
      <polygon points="268.58,108.52 272.07,114.56 265.09,114.56" />
      <polygon points="261.60,108.52 265.09,114.56 258.11,114.56" />
      <polygon points="286.04,114.56 289.53,120.61 282.54,120.61" />
      <polygon points="289.53,120.61 293.02,126.66 286.04,126.66" />
      <polygon points="282.54,120.61 286.04,126.66 279.05,126.66" />
      <polygon points="293.02,126.66 296.51,132.70 289.53,132.70" />
      <polygon points="296.51,132.70 300.00,138.75 293.02,138.75" />
      <polygon points="289.53,132.70 293.02,138.75 286.04,138.75" />
      <polygon points="279.05,126.66 282.54,132.70 275.56,132.70" />
      <polygon points="282.54,132.70 286.04,138.75 279.05,138.75" />
      <polygon points="275.56,132.70 279.05,138.75 272.07,138.75" />
      <polygon points="258.11,114.56 261.60,120.61 254.61,120.61" />
      <polygon points="261.60,120.61 265.09,126.66 258.11,126.66" />
      <polygon points="254.61,120.61 258.11,126.66 251.12,126.66" />
      <polygon points="265.09,126.66 268.58,132.70 261.60,132.70" />
      <polygon points="268.58,132.70 272.07,138.75 265.09,138.75" />
      <polygon points="261.60,132.70 265.09,138.75 258.11,138.75" />
      <polygon points="251.12,126.66 254.61,132.70 247.63,132.70" />
      <polygon points="254.61,132.70 258.11,138.75 251.12,138.75" />
      <polygon points="247.63,132.70 251.12,138.75 244.14,138.75" />
      <polygon points="355.86,138.75 359.35,144.80 352.37,144.80" />
      <polygon points="359.35,144.80 362.84,150.84 355.86,150.84" />
      <polygon points="352.37,144.80 355.86,150.84 348.88,150.84" />
      <polygon points="362.84,150.84 366.33,156.89 359.35,156.89" />
      <polygon points="366.33,156.89 369.82,162.94 362.84,162.94" />
      <polygon points="359.35,156.89 362.84,162.94 355.86,162.94" />
      <polygon points="348.88,150.84 352.37,156.89 345.39,156.89" />
      <polygon points="352.37,156.89 355.86,162.94 348.88,162.94" />
      <polygon points="345.39,156.89 348.88,162.94 341.89,162.94" />
      <polygon points="369.82,162.94 373.31,168.98 366.33,168.98" />
      <polygon points="373.31,168.98 376.81,175.03 369.82,175.03" />
      <polygon points="366.33,168.98 369.82,175.03 362.84,175.03" />
      <polygon points="376.81,175.03 380.30,181.08 373.31,181.08" />
      <polygon points="380.30,181.08 383.79,187.12 376.81,187.12" />
      <polygon points="373.31,181.08 376.81,187.12 369.82,187.12" />
      <polygon points="362.84,175.03 366.33,181.08 359.35,181.08" />
      <polygon points="366.33,181.08 369.82,187.12 362.84,187.12" />
      <polygon points="359.35,181.08 362.84,187.12 355.86,187.12" />
      <polygon points="341.89,162.94 345.39,168.98 338.40,168.98" />
      <polygon points="345.39,168.98 348.88,175.03 341.89,175.03" />
      <polygon points="338.40,168.98 341.89,175.03 334.91,175.03" />
      <polygon points="348.88,175.03 352.37,181.08 345.39,181.08" />
      <polygon points="352.37,181.08 355.86,187.12 348.88,187.12" />
      <polygon points="345.39,181.08 348.88,187.12 341.89,187.12" />
      <polygon points="334.91,175.03 338.40,181.08 331.42,181.08" />
      <polygon points="338.40,181.08 341.89,187.12 334.91,187.12" />
      <polygon points="331.42,181.08 334.91,187.12 327.93,187.12" />
      <polygon points="383.79,187.12 387.28,193.17 380.30,193.17" />
      <polygon points="387.28,193.17 390.77,199.22 383.79,199.22" />
      <polygon points="380.30,193.17 383.79,199.22 376.81,199.22" />
      <polygon points="390.77,199.22 394.26,205.27 387.28,205.27" />
      <polygon points="394.26,205.27 397.75,211.31 390.77,211.31" />
      <polygon points="387.28,205.27 390.77,211.31 383.79,211.31" />
      <polygon points="376.81,199.22 380.30,205.27 373.31,205.27" />
      <polygon points="380.30,205.27 383.79,211.31 376.81,211.31" />
      <polygon points="373.31,205.27 376.81,211.31 369.82,211.31" />
      <polygon points="397.75,211.31 401.24,217.36 394.26,217.36" />
      <polygon points="401.24,217.36 404.73,223.41 397.75,223.41" />
      <polygon points="394.26,217.36 397.75,223.41 390.77,223.41" />
      <polygon points="404.73,223.41 408.23,229.45 401.24,229.45" />
      <polygon points="408.23,229.45 411.72,235.50 404.73,235.50" />
      <polygon points="401.24,229.45 404.73,235.50 397.75,235.50" />
      <polygon points="390.77,223.41 394.26,229.45 387.28,229.45" />
      <polygon points="394.26,229.45 397.75,235.50 390.77,235.50" />
      <polygon points="387.28,229.45 390.77,235.50 383.79,235.50" />
      <polygon points="369.82,211.31 373.31,217.36 366.33,217.36" />
      <polygon points="373.31,217.36 376.81,223.41 369.82,223.41" />
      <polygon points="366.33,217.36 369.82,223.41 362.84,223.41" />
      <polygon points="376.81,223.41 380.30,229.45 373.31,229.45" />
      <polygon points="380.30,229.45 383.79,235.50 376.81,235.50" />
      <polygon points="373.31,229.45 376.81,235.50 369.82,235.50" />
      <polygon points="362.84,223.41 366.33,229.45 359.35,229.45" />
      <polygon points="366.33,229.45 369.82,235.50 362.84,235.50" />
      <polygon points="359.35,229.45 362.84,235.50 355.86,235.50" />
      <polygon points="327.93,187.12 331.42,193.17 324.44,193.17" />
      <polygon points="331.42,193.17 334.91,199.22 327.93,199.22" />
      <polygon points="324.44,193.17 327.93,199.22 320.95,199.22" />
      <polygon points="334.91,199.22 338.40,205.27 331.42,205.27" />
      <polygon points="338.40,205.27 341.89,211.31 334.91,211.31" />
      <polygon points="331.42,205.27 334.91,211.31 327.93,211.31" />
      <polygon points="320.95,199.22 324.44,205.27 317.46,205.27" />
      <polygon points="324.44,205.27 327.93,211.31 320.95,211.31" />
      <polygon points="317.46,205.27 320.95,211.31 313.96,211.31" />
      <polygon points="341.89,211.31 345.39,217.36 338.40,217.36" />
      <polygon points="345.39,217.36 348.88,223.41 341.89,223.41" />
      <polygon points="338.40,217.36 341.89,223.41 334.91,223.41" />
      <polygon points="348.88,223.41 352.37,229.45 345.39,229.45" />
      <polygon points="352.37,229.45 355.86,235.50 348.88,235.50" />
      <polygon points="345.39,229.45 348.88,235.50 341.89,235.50" />
      <polygon points="334.91,223.41 338.40,229.45 331.42,229.45" />
      <polygon points="338.40,229.45 341.89,235.50 334.91,235.50" />
      <polygon points="331.42,229.45 334.91,235.50 327.93,235.50" />
      <polygon points="313.96,211.31 317.46,217.36 310.47,217.36" />
      <polygon points="317.46,217.36 320.95,223.41 313.96,223.41" />
      <polygon points="310.47,217.36 313.96,223.41 306.98,223.41" />
      <polygon points="320.95,223.41 324.44,229.45 317.46,229.45" />
      <polygon points="324.44,229.45 327.93,235.50 320.95,235.50" />
      <polygon points="317.46,229.45 320.95,235.50 313.96,235.50" />
      <polygon points="306.98,223.41 310.47,229.45 303.49,229.45" />
      <polygon points="310.47,229.45 313.96,235.50 306.98,235.50" />
      <polygon points="303.49,229.45 306.98,235.50 300.00,235.50" />
      <polygon points="244.14,138.75 247.63,144.80 240.65,144.80" />
      <polygon points="247.63,144.80 251.12,150.84 244.14,150.84" />
      <polygon points="240.65,144.80 244.14,150.84 237.16,150.84" />
      <polygon points="251.12,150.84 254.61,156.89 247.63,156.89" />
      <polygon points="254.61,156.89 258.11,162.94 251.12,162.94" />
      <polygon points="247.63,156.89 251.12,162.94 244.14,162.94" />
      <polygon points="237.16,150.84 240.65,156.89 233.67,156.89" />
      <polygon points="240.65,156.89 244.14,162.94 237.16,162.94" />
      <polygon points="233.67,156.89 237.16,162.94 230.18,162.94" />
      <polygon points="258.11,162.94 261.60,168.98 254.61,168.98" />
      <polygon points="261.60,168.98 265.09,175.03 258.11,175.03" />
      <polygon points="254.61,168.98 258.11,175.03 251.12,175.03" />
      <polygon points="265.09,175.03 268.58,181.08 261.60,181.08" />
      <polygon points="268.58,181.08 272.07,187.12 265.09,187.12" />
      <polygon points="261.60,181.08 265.09,187.12 258.11,187.12" />
      <polygon points="251.12,175.03 254.61,181.08 247.63,181.08" />
      <polygon points="254.61,181.08 258.11,187.12 251.12,187.12" />
      <polygon points="247.63,181.08 251.12,187.12 244.14,187.13" />
      <polygon points="230.18,162.94 233.67,168.98 226.69,168.98" />
      <polygon points="233.67,168.98 237.16,175.03 230.18,175.03" />
      <polygon points="226.69,168.98 230.18,175.03 223.19,175.03" />
      <polygon points="237.16,175.03 240.65,181.08 233.67,181.08" />
      <polygon points="240.65,181.08 244.14,187.13 237.16,187.13" />
      <polygon points="233.67,181.08 237.16,187.13 230.18,187.13" />
      <polygon points="223.19,175.03 226.69,181.08 219.70,181.08" />
      <polygon points="226.69,181.08 230.18,187.13 223.19,187.13" />
      <polygon points="219.70,181.08 223.19,187.13 216.21,187.13" />
      <polygon points="272.07,187.12 275.56,193.17 268.58,193.17" />
      <polygon points="275.56,193.17 279.05,199.22 272.07,199.22" />
      <polygon points="268.58,193.17 272.07,199.22 265.09,199.22" />
      <polygon points="279.05,199.22 282.54,205.27 275.56,205.27" />
      <polygon points="282.54,205.27 286.04,211.31 279.05,211.31" />
      <polygon points="275.56,205.27 279.05,211.31 272.07,211.31" />
      <polygon points="265.09,199.22 268.58,205.27 261.60,205.27" />
      <polygon points="268.58,205.27 272.07,211.31 265.09,211.31" />
      <polygon points="261.60,205.27 265.09,211.31 258.11,211.31" />
      <polygon points="286.04,211.31 289.53,217.36 282.54,217.36" />
      <polygon points="289.53,217.36 293.02,223.41 286.04,223.41" />
      <polygon points="282.54,217.36 286.04,223.41 279.05,223.41" />
      <polygon points="293.02,223.41 296.51,229.45 289.53,229.45" />
      <polygon points="296.51,229.45 300.00,235.50 293.02,235.50" />
      <polygon points="289.53,229.45 293.02,235.50 286.04,235.50" />
      <polygon points="279.05,223.41 282.54,229.45 275.56,229.45" />
      <polygon points="282.54,229.45 286.04,235.50 279.05,235.50" />
      <polygon points="275.56,229.45 279.05,235.50 272.07,235.50" />
      <polygon points="258.11,211.31 261.60,217.36 254.61,217.36" />
      <polygon points="261.60,217.36 265.09,223.41 258.11,223.41" />
      <polygon points="254.61,217.36 258.11,223.41 251.12,223.41" />
      <polygon points="265.09,223.41 268.58,229.45 261.60,229.45" />
      <polygon points="268.58,229.45 272.07,235.50 265.09,235.50" />
      <polygon points="261.60,229.45 265.09,235.50 258.11,235.50" />
      <polygon points="251.12,223.41 254.61,229.45 247.63,229.45" />
      <polygon points="254.61,229.45 258.11,235.50 251.12,235.50" />
      <polygon points="247.63,229.45 251.12,235.50 244.14,235.50" />
      <polygon points="216.21,187.13 219.70,193.17 212.72,193.17" />
      <polygon points="219.70,193.17 223.19,199.22 216.21,199.22" />
      <polygon points="212.72,193.17 216.21,199.22 209.23,199.22" />
      <polygon points="223.19,199.22 226.69,205.27 219.70,205.27" />
      <polygon points="226.69,205.27 230.18,211.31 223.19,211.31" />
      <polygon points="219.70,205.27 223.19,211.31 216.21,211.31" />
      <polygon points="209.23,199.22 212.72,205.27 205.74,205.27" />
      <polygon points="212.72,205.27 216.21,211.31 209.23,211.31" />
      <polygon points="205.74,205.27 209.23,211.31 202.25,211.31" />
      <polygon points="230.18,211.31 233.67,217.36 226.69,217.36" />
      <polygon points="233.67,217.36 237.16,223.41 230.18,223.41" />
      <polygon points="226.69,217.36 230.18,223.41 223.19,223.41" />
      <polygon points="237.16,223.41 240.65,229.45 233.67,229.45" />
      <polygon points="240.65,229.45 244.14,235.50 237.16,235.50" />
      <polygon points="233.67,229.45 237.16,235.50 230.18,235.50" />
      <polygon points="223.19,223.41 226.69,229.45 219.70,229.45" />
      <polygon points="226.69,229.45 230.18,235.50 223.19,235.50" />
      <polygon points="219.70,229.45 223.19,235.50 216.21,235.50" />
      <polygon points="202.25,211.31 205.74,217.36 198.76,217.36" />
      <polygon points="205.74,217.36 209.23,223.41 202.25,223.41" />
      <polygon points="198.76,217.36 202.25,223.41 195.27,223.41" />
      <polygon points="209.23,223.41 212.72,229.45 205.74,229.45" />
      <polygon points="212.72,229.45 216.21,235.50 209.23,235.50" />
      <polygon points="205.74,229.45 209.23,235.50 202.25,235.50" />
      <polygon points="195.27,223.41 198.76,229.45 191.77,229.45" />
      <polygon points="198.76,229.45 202.25,235.50 195.27,235.50" />
      <polygon points="191.77,229.45 195.27,235.50 188.28,235.50" />
      <polygon points="411.72,235.50 415.21,241.55 408.23,241.55" />
      <polygon points="415.21,241.55 418.70,247.59 411.72,247.59" />
      <polygon points="408.23,241.55 411.72,247.59 404.73,247.59" />
      <polygon points="418.70,247.59 422.19,253.64 415.21,253.64" />
      <polygon points="422.19,253.64 425.68,259.69 418.70,259.69" />
      <polygon points="415.21,253.64 418.70,259.69 411.72,259.69" />
      <polygon points="404.73,247.59 408.23,253.64 401.24,253.64" />
      <polygon points="408.23,253.64 411.72,259.69 404.73,259.69" />
      <polygon points="401.24,253.64 404.73,259.69 397.75,259.69" />
      <polygon points="425.68,259.69 429.17,265.73 422.19,265.73" />
      <polygon points="429.17,265.73 432.66,271.78 425.68,271.78" />
      <polygon points="422.19,265.73 425.68,271.78 418.70,271.78" />
      <polygon points="432.66,271.78 436.16,277.83 429.17,277.83" />
      <polygon points="436.16,277.83 439.65,283.87 432.66,283.88" />
      <polygon points="429.17,277.83 432.66,283.88 425.68,283.88" />
      <polygon points="418.70,271.78 422.19,277.83 415.21,277.83" />
      <polygon points="422.19,277.83 425.68,283.88 418.70,283.88" />
      <polygon points="415.21,277.83 418.70,283.88 411.72,283.88" />
      <polygon points="397.75,259.69 401.24,265.73 394.26,265.73" />
      <polygon points="401.24,265.73 404.73,271.78 397.75,271.78" />
      <polygon points="394.26,265.73 397.75,271.78 390.77,271.78" />
      <polygon points="404.73,271.78 408.23,277.83 401.24,277.83" />
      <polygon points="408.23,277.83 411.72,283.88 404.73,283.88" />
      <polygon points="401.24,277.83 404.73,283.88 397.75,283.88" />
      <polygon points="390.77,271.78 394.26,277.83 387.28,277.83" />
      <polygon points="394.26,277.83 397.75,283.88 390.77,283.88" />
      <polygon points="387.28,277.83 390.77,283.88 383.79,283.88" />
      <polygon points="439.65,283.87 443.14,289.92 436.16,289.92" />
      <polygon points="443.14,289.92 446.63,295.97 439.65,295.97" />
      <polygon points="436.16,289.92 439.65,295.97 432.66,295.97" />
      <polygon points="446.63,295.97 450.12,302.02 443.14,302.02" />
      <polygon points="450.12,302.02 453.61,308.06 446.63,308.06" />
      <polygon points="443.14,302.02 446.63,308.06 439.65,308.06" />
      <polygon points="432.66,295.97 436.16,302.02 429.17,302.02" />
      <polygon points="436.16,302.02 439.65,308.06 432.66,308.06" />
      <polygon points="429.17,302.02 432.66,308.06 425.68,308.06" />
      <polygon points="453.61,308.06 457.10,314.11 450.12,314.11" />
      <polygon points="457.10,314.11 460.59,320.16 453.61,320.16" />
      <polygon points="450.12,314.11 453.61,320.16 446.63,320.16" />
      <polygon points="460.59,320.16 464.08,326.20 457.10,326.20" />
      <polygon points="464.08,326.20 467.58,332.25 460.59,332.25" />
      <polygon points="457.10,326.20 460.59,332.25 453.61,332.25" />
      <polygon points="446.63,320.16 450.12,326.20 443.14,326.20" />
      <polygon points="450.12,326.20 453.61,332.25 446.63,332.25" />
      <polygon points="443.14,326.20 446.63,332.25 439.65,332.25" />
      <polygon points="425.68,308.06 429.17,314.11 422.19,314.11" />
      <polygon points="429.17,314.11 432.66,320.16 425.68,320.16" />
      <polygon points="422.19,314.11 425.68,320.16 418.70,320.16" />
      <polygon points="432.66,320.16 436.16,326.20 429.17,326.20" />
      <polygon points="436.16,326.20 439.65,332.25 432.66,332.25" />
      <polygon points="429.17,326.20 432.66,332.25 425.68,332.25" />
      <polygon points="418.70,320.16 422.19,326.20 415.21,326.20" />
      <polygon points="422.19,326.20 425.68,332.25 418.70,332.25" />
      <polygon points="415.21,326.20 418.70,332.25 411.72,332.25" />
      <polygon points="383.79,283.88 387.28,289.92 380.30,289.92" />
      <polygon points="387.28,289.92 390.77,295.97 383.79,295.97" />
      <polygon points="380.30,289.92 383.79,295.97 376.81,295.97" />
      <polygon points="390.77,295.97 394.26,302.02 387.28,302.02" />
      <polygon points="394.26,302.02 397.75,308.06 390.77,308.06" />
      <polygon points="387.28,302.02 390.77,308.06 383.79,308.06" />
      <polygon points="376.81,295.97 380.30,302.02 373.31,302.02" />
      <polygon points="380.30,302.02 383.79,308.06 376.81,308.06" />
      <polygon points="373.31,302.02 376.81,308.06 369.82,308.06" />
      <polygon points="397.75,308.06 401.24,314.11 394.26,314.11" />
      <polygon points="401.24,314.11 404.73,320.16 397.75,320.16" />
      <polygon points="394.26,314.11 397.75,320.16 390.77,320.16" />
      <polygon points="404.73,320.16 408.23,326.20 401.24,326.20" />
      <polygon points="408.23,326.20 411.72,332.25 404.73,332.25" />
      <polygon points="401.24,326.20 404.73,332.25 397.75,332.25" />
      <polygon points="390.77,320.16 394.26,326.20 387.28,326.20" />
      <polygon points="394.26,326.20 397.75,332.25 390.77,332.25" />
      <polygon points="387.28,326.20 390.77,332.25 383.79,332.25" />
      <polygon points="369.82,308.06 373.31,314.11 366.33,314.11" />
      <polygon points="373.31,314.11 376.81,320.16 369.82,320.16" />
      <polygon points="366.33,314.11 369.82,320.16 362.84,320.16" />
      <polygon points="376.81,320.16 380.30,326.20 373.31,326.20" />
      <polygon points="380.30,326.20 383.79,332.25 376.81,332.25" />
      <polygon points="373.31,326.20 376.81,332.25 369.82,332.25" />
      <polygon points="362.84,320.16 366.33,326.20 359.35,326.20" />
      <polygon points="366.33,326.20 369.82,332.25 362.84,332.25" />
      <polygon points="359.35,326.20 362.84,332.25 355.86,332.25" />
      <polygon points="467.58,332.25 471.07,338.30 464.08,338.30" />
      <polygon points="471.07,338.30 474.56,344.34 467.58,344.34" />
      <polygon points="464.08,338.30 467.58,344.34 460.59,344.34" />
      <polygon points="474.56,344.34 478.05,350.39 471.07,350.39" />
      <polygon points="478.05,350.39 481.54,356.44 474.56,356.44" />
      <polygon points="471.07,350.39 474.56,356.44 467.58,356.44" />
      <polygon points="460.59,344.34 464.08,350.39 457.10,350.39" />
      <polygon points="464.08,350.39 467.58,356.44 460.59,356.44" />
      <polygon points="457.10,350.39 460.59,356.44 453.61,356.44" />
      <polygon points="481.54,356.44 485.03,362.48 478.05,362.48" />
      <polygon points="485.03,362.48 488.52,368.53 481.54,368.53" />
      <polygon points="478.05,362.48 481.54,368.53 474.56,368.53" />
      <polygon points="488.52,368.53 492.01,374.58 485.03,374.58" />
      <polygon points="492.01,374.58 495.51,380.62 488.52,380.62" />
      <polygon points="485.03,374.58 488.52,380.62 481.54,380.62" />
      <polygon points="474.56,368.53 478.05,374.58 471.07,374.58" />
      <polygon points="478.05,374.58 481.54,380.62 474.56,380.62" />
      <polygon points="471.07,374.58 474.56,380.62 467.58,380.62" />
      <polygon points="453.61,356.44 457.10,362.48 450.12,362.48" />
      <polygon points="457.10,362.48 460.59,368.53 453.61,368.53" />
      <polygon points="450.12,362.48 453.61,368.53 446.63,368.53" />
      <polygon points="460.59,368.53 464.08,374.58 457.10,374.58" />
      <polygon points="464.08,374.58 467.58,380.62 460.59,380.62" />
      <polygon points="457.10,374.58 460.59,380.62 453.61,380.62" />
      <polygon points="446.63,368.53 450.12,374.58 443.14,374.58" />
      <polygon points="450.12,374.58 453.61,380.62 446.63,380.62" />
      <polygon points="443.14,374.58 446.63,380.62 439.65,380.62" />
      <polygon points="495.51,380.62 499.00,386.67 492.01,386.67" />
      <polygon points="499.00,386.67 502.49,392.72 495.51,392.72" />
      <polygon points="492.01,386.67 495.51,392.72 488.52,392.72" />
      <polygon points="502.49,392.72 505.98,398.77 499.00,398.77" />
      <polygon points="505.98,398.77 509.47,404.81 502.49,404.81" />
      <polygon points="499.00,398.77 502.49,404.81 495.51,404.81" />
      <polygon points="488.52,392.72 492.01,398.77 485.03,398.77" />
      <polygon points="492.01,398.77 495.51,404.81 488.52,404.81" />
      <polygon points="485.03,398.77 488.52,404.81 481.54,404.81" />
      <polygon points="509.47,404.81 512.96,410.86 505.98,410.86" />
      <polygon points="512.96,410.86 516.45,416.91 509.47,416.91" />
      <polygon points="505.98,410.86 509.47,416.91 502.49,416.91" />
      <polygon points="516.45,416.91 519.94,422.95 512.96,422.95" />
      <polygon points="519.94,422.95 523.43,429.00 516.45,429.00" />
      <polygon points="512.96,422.95 516.45,429.00 509.47,429.00" />
      <polygon points="502.49,416.91 505.98,422.95 499.00,422.95" />
      <polygon points="505.98,422.95 509.47,429.00 502.49,429.00" />
      <polygon points="499.00,422.95 502.49,429.00 495.51,429.00" />
      <polygon points="481.54,404.81 485.03,410.86 478.05,410.86" />
      <polygon points="485.03,410.86 488.52,416.91 481.54,416.91" />
      <polygon points="478.05,410.86 481.54,416.91 474.56,416.91" />
      <polygon points="488.52,416.91 492.01,422.95 485.03,422.95" />
      <polygon points="492.01,422.95 495.51,429.00 488.52,429.00" />
      <polygon points="485.03,422.95 488.52,429.00 481.54,429.00" />
      <polygon points="474.56,416.91 478.05,422.95 471.07,422.95" />
      <polygon points="478.05,422.95 481.54,429.00 474.56,429.00" />
      <polygon points="471.07,422.95 474.56,429.00 467.58,429.00" />
      <polygon points="439.65,380.62 443.14,386.67 436.16,386.67" />
      <polygon points="443.14,386.67 446.63,392.72 439.65,392.72" />
      <polygon points="436.16,386.67 439.65,392.72 432.66,392.72" />
      <polygon points="446.63,392.72 450.12,398.77 443.14,398.77" />
      <polygon points="450.12,398.77 453.61,404.81 446.63,404.81" />
      <polygon points="443.14,398.77 446.63,404.81 439.65,404.81" />
      <polygon points="432.66,392.72 436.16,398.77 429.17,398.77" />
      <polygon points="436.16,398.77 439.65,404.81 432.66,404.81" />
      <polygon points="429.17,398.77 432.66,404.81 425.68,404.81" />
      <polygon points="453.61,404.81 457.10,410.86 450.12,410.86" />
      <polygon points="457.10,410.86 460.59,416.91 453.61,416.91" />
      <polygon points="450.12,410.86 453.61,416.91 446.63,416.91" />
      <polygon points="460.59,416.91 464.08,422.95 457.10,422.95" />
      <polygon points="464.08,422.95 467.58,429.00 460.59,429.00" />
      <polygon points="457.10,422.95 460.59,429.00 453.61,429.00" />
      <polygon points="446.63,416.91 450.12,422.95 443.14,422.95" />
      <polygon points="450.12,422.95 453.61,429.00 446.63,429.00" />
      <polygon points="443.14,422.95 446.63,429.00 439.65,429.00" />
      <polygon points="425.68,404.81 429.17,410.86 422.19,410.86" />
      <polygon points="429.17,410.86 432.66,416.91 425.68,416.91" />
      <polygon points="422.19,410.86 425.68,416.91 418.70,416.91" />
      <polygon points="432.66,416.91 436.16,422.95 429.17,422.95" />
      <polygon points="436.16,422.95 439.65,429.00 432.66,429.00" />
      <polygon points="429.17,422.95 432.66,429.00 425.68,429.00" />
      <polygon points="418.70,416.91 422.19,422.95 415.21,422.95" />
      <polygon points="422.19,422.95 425.68,429.00 418.70,429.00" />
      <polygon points="415.21,422.95 418.70,429.00 411.72,429.00" />
      <polygon points="355.86,332.25 359.35,338.30 352.37,338.30" />
      <polygon points="359.35,338.30 362.84,344.34 355.86,344.34" />
      <polygon points="352.37,338.30 355.86,344.34 348.88,344.34" />
      <polygon points="362.84,344.34 366.33,350.39 359.35,350.39" />
      <polygon points="366.33,350.39 369.82,356.44 362.84,356.44" />
      <polygon points="359.35,350.39 362.84,356.44 355.86,356.44" />
      <polygon points="348.88,344.34 352.37,350.39 345.39,350.39" />
      <polygon points="352.37,350.39 355.86,356.44 348.88,356.44" />
      <polygon points="345.39,350.39 348.88,356.44 341.89,356.44" />
      <polygon points="369.82,356.44 373.31,362.48 366.33,362.48" />
      <polygon points="373.31,362.48 376.81,368.53 369.82,368.53" />
      <polygon points="366.33,362.48 369.82,368.53 362.84,368.53" />
      <polygon points="376.81,368.53 380.30,374.58 373.31,374.58" />
      <polygon points="380.30,374.58 383.79,380.62 376.81,380.62" />
      <polygon points="373.31,374.58 376.81,380.62 369.82,380.62" />
      <polygon points="362.84,368.53 366.33,374.58 359.35,374.58" />
      <polygon points="366.33,374.58 369.82,380.62 362.84,380.62" />
      <polygon points="359.35,374.58 362.84,380.62 355.86,380.62" />
      <polygon points="341.89,356.44 345.39,362.48 338.40,362.48" />
      <polygon points="345.39,362.48 348.88,368.53 341.89,368.53" />
      <polygon points="338.40,362.48 341.89,368.53 334.91,368.53" />
      <polygon points="348.88,368.53 352.37,374.58 345.39,374.58" />
      <polygon points="352.37,374.58 355.86,380.62 348.88,380.62" />
      <polygon points="345.39,374.58 348.88,380.62 341.89,380.62" />
      <polygon points="334.91,368.53 338.40,374.58 331.42,374.58" />
      <polygon points="338.40,374.58 341.89,380.62 334.91,380.62" />
      <polygon points="331.42,374.58 334.91,380.62 327.93,380.62" />
      <polygon points="383.79,380.62 387.28,386.67 380.30,386.67" />
      <polygon points="387.28,386.67 390.77,392.72 383.79,392.72" />
      <polygon points="380.30,386.67 383.79,392.72 376.81,392.72" />
      <polygon points="390.77,392.72 394.26,398.77 387.28,398.77" />
      <polygon points="394.26,398.77 397.75,404.81 390.77,404.81" />
      <polygon points="387.28,398.77 390.77,404.81 383.79,404.81" />
      <polygon points="376.81,392.72 380.30,398.77 373.31,398.77" />
      <polygon points="380.30,398.77 383.79,404.81 376.81,404.81" />
      <polygon points="373.31,398.77 376.81,404.81 369.82,404.81" />
      <polygon points="397.75,404.81 401.24,410.86 394.26,410.86" />
      <polygon points="401.24,410.86 404.73,416.91 397.75,416.91" />
      <polygon points="394.26,410.86 397.75,416.91 390.77,416.91" />
      <polygon points="404.73,416.91 408.23,422.95 401.24,422.95" />
      <polygon points="408.23,422.95 411.72,429.00 404.73,429.00" />
      <polygon points="401.24,422.95 404.73,429.00 397.75,429.00" />
      <polygon points="390.77,416.91 394.26,422.95 387.28,422.95" />
      <polygon points="394.26,422.95 397.75,429.00 390.77,429.00" />
      <polygon points="387.28,422.95 390.77,429.00 383.79,429.00" />
      <polygon points="369.82,404.81 373.31,410.86 366.33,410.86" />
      <polygon points="373.31,410.86 376.81,416.91 369.82,416.91" />
      <polygon points="366.33,410.86 369.82,416.91 362.84,416.91" />
      <polygon points="376.81,416.91 380.30,422.95 373.31,422.95" />
      <polygon points="380.30,422.95 383.79,429.00 376.81,429.00" />
      <polygon points="373.31,422.95 376.81,429.00 369.82,429.00" />
      <polygon points="362.84,416.91 366.33,422.95 359.35,422.95" />
      <polygon points="366.33,422.95 369.82,429.00 362.84,429.00" />
      <polygon points="359.35,422.95 362.84,429.00 355.86,429.00" />
      <polygon points="327.93,380.62 331.42,386.67 324.44,386.67" />
      <polygon points="331.42,386.67 334.91,392.72 327.93,392.72" />
      <polygon points="324.44,386.67 327.93,392.72 320.95,392.72" />
      <polygon points="334.91,392.72 338.40,398.77 331.42,398.77" />
      <polygon points="338.40,398.77 341.89,404.81 334.91,404.81" />
      <polygon points="331.42,398.77 334.91,404.81 327.93,404.81" />
      <polygon points="320.95,392.72 324.44,398.77 317.46,398.77" />
      <polygon points="324.44,398.77 327.93,404.81 320.95,404.81" />
      <polygon points="317.46,398.77 320.95,404.81 313.96,404.81" />
      <polygon points="341.89,404.81 345.39,410.86 338.40,410.86" />
      <polygon points="345.39,410.86 348.88,416.91 341.89,416.91" />
      <polygon points="338.40,410.86 341.89,416.91 334.91,416.91" />
      <polygon points="348.88,416.91 352.37,422.95 345.39,422.95" />
      <polygon points="352.37,422.95 355.86,429.00 348.88,429.00" />
      <polygon points="345.39,422.95 348.88,429.00 341.89,429.00" />
      <polygon points="334.91,416.91 338.40,422.95 331.42,422.95" />
      <polygon points="338.40,422.95 341.89,429.00 334.91,429.00" />
      <polygon points="331.42,422.95 334.91,429.00 327.93,429.00" />
      <polygon points="313.96,404.81 317.46,410.86 310.47,410.86" />
      <polygon points="317.46,410.86 320.95,416.91 313.96,416.91" />
      <polygon points="310.47,410.86 313.96,416.91 306.98,416.91" />
      <polygon points="320.95,416.91 324.44,422.95 317.46,422.95" />
      <polygon points="324.44,422.95 327.93,429.00 320.95,429.00" />
      <polygon points="317.46,422.95 320.95,429.00 313.96,429.00" />
      <polygon points="306.98,416.91 310.47,422.95 303.49,422.95" />
      <polygon points="310.47,422.95 313.96,429.00 306.98,429.00" />
      <polygon points="303.49,422.95 306.98,429.00 300.00,429.00" />
      <polygon points="188.28,235.50 191.77,241.55 184.79,241.55" />
      <polygon points="191.77,241.55 195.27,247.59 188.28,247.59" />
      <polygon points="184.79,241.55 188.28,247.59 181.30,247.59" />
      <polygon points="195.27,247.59 198.76,253.64 191.77,253.64" />
      <polygon points="198.76,253.64 202.25,259.69 195.27,259.69" />
      <polygon points="191.77,253.64 195.27,259.69 188.28,259.69" />
      <polygon points="181.30,247.59 184.79,253.64 177.81,253.64" />
      <polygon points="184.79,253.64 188.28,259.69 181.30,259.69" />
      <polygon points="177.81,253.64 181.30,259.69 174.32,259.69" />
      <polygon points="202.25,259.69 205.74,265.73 198.76,265.73" />
      <polygon points="205.74,265.73 209.23,271.78 202.25,271.78" />
      <polygon points="198.76,265.73 202.25,271.78 195.27,271.78" />
      <polygon points="209.23,271.78 212.72,277.83 205.74,277.83" />
      <polygon points="212.72,277.83 216.21,283.88 209.23,283.88" />
      <polygon points="205.74,277.83 209.23,283.88 202.25,283.88" />
      <polygon points="195.27,271.78 198.76,277.83 191.77,277.83" />
      <polygon points="198.76,277.83 202.25,283.88 195.27,283.88" />
      <polygon points="191.77,277.83 195.27,283.88 188.28,283.88" />
      <polygon points="174.32,259.69 177.81,265.73 170.83,265.73" />
      <polygon points="177.81,265.73 181.30,271.78 174.32,271.78" />
      <polygon points="170.83,265.73 174.32,271.78 167.34,271.78" />
      <polygon points="181.30,271.78 184.79,277.83 177.81,277.83" />
      <polygon points="184.79,277.83 188.28,283.88 181.30,283.88" />
      <polygon points="177.81,277.83 181.30,283.88 174.32,283.88" />
      <polygon points="167.34,271.78 170.83,277.83 163.84,277.83" />
      <polygon points="170.83,277.83 174.32,283.88 167.34,283.88" />
      <polygon points="163.84,277.83 167.34,283.88 160.35,283.88" />
      <polygon points="216.21,283.88 219.70,289.92 212.72,289.92" />
      <polygon points="219.70,289.92 223.19,295.97 216.21,295.97" />
      <polygon points="212.72,289.92 216.21,295.97 209.23,295.97" />
      <polygon points="223.19,295.97 226.69,302.02 219.70,302.02" />
      <polygon points="226.69,302.02 230.18,308.06 223.19,308.06" />
      <polygon points="219.70,302.02 223.19,308.06 216.21,308.06" />
      <polygon points="209.23,295.97 212.72,302.02 205.74,302.02" />
      <polygon points="212.72,302.02 216.21,308.06 209.23,308.06" />
      <polygon points="205.74,302.02 209.23,308.06 202.25,308.06" />
      <polygon points="230.18,308.06 233.67,314.11 226.69,314.11" />
      <polygon points="233.67,314.11 237.16,320.16 230.18,320.16" />
      <polygon points="226.69,314.11 230.18,320.16 223.19,320.16" />
      <polygon points="237.16,320.16 240.65,326.20 233.67,326.20" />
      <polygon points="240.65,326.20 244.14,332.25 237.16,332.25" />
      <polygon points="233.67,326.20 237.16,332.25 230.18,332.25" />
      <polygon points="223.19,320.16 226.69,326.20 219.70,326.20" />
      <polygon points="226.69,326.20 230.18,332.25 223.19,332.25" />
      <polygon points="219.70,326.20 223.19,332.25 216.21,332.25" />
      <polygon points="202.25,308.06 205.74,314.11 198.76,314.11" />
      <polygon points="205.74,314.11 209.23,320.16 202.25,320.16" />
      <polygon points="198.76,314.11 202.25,320.16 195.27,320.16" />
      <polygon points="209.23,320.16 212.72,326.20 205.74,326.20" />
      <polygon points="212.72,326.20 216.21,332.25 209.23,332.25" />
      <polygon points="205.74,326.20 209.23,332.25 202.25,332.25" />
      <polygon points="195.27,320.16 198.76,326.20 191.77,326.20" />
      <polygon points="198.76,326.20 202.25,332.25 195.27,332.25" />
      <polygon points="191.77,326.20 195.27,332.25 188.28,332.25" />
      <polygon points="160.35,283.88 163.84,289.92 156.86,289.92" />
      <polygon points="163.84,289.92 167.34,295.97 160.35,295.97" />
      <polygon points="156.86,289.92 160.35,295.97 153.37,295.97" />
      <polygon points="167.34,295.97 170.83,302.02 163.84,302.02" />
      <polygon points="170.83,302.02 174.32,308.06 167.34,308.06" />
      <polygon points="163.84,302.02 167.34,308.06 160.35,308.06" />
      <polygon points="153.37,295.97 156.86,302.02 149.88,302.02" />
      <polygon points="156.86,302.02 160.35,308.06 153.37,308.06" />
      <polygon points="149.88,302.02 153.37,308.06 146.39,308.06" />
      <polygon points="174.32,308.06 177.81,314.11 170.83,314.11" />
      <polygon points="177.81,314.11 181.30,320.16 174.32,320.16" />
      <polygon points="170.83,314.11 174.32,320.16 167.34,320.16" />
      <polygon points="181.30,320.16 184.79,326.20 177.81,326.20" />
      <polygon points="184.79,326.20 188.28,332.25 181.30,332.25" />
      <polygon points="177.81,326.20 181.30,332.25 174.32,332.25" />
      <polygon points="167.34,320.16 170.83,326.20 163.84,326.20" />
      <polygon points="170.83,326.20 174.32,332.25 167.34,332.25" />
      <polygon points="163.84,326.20 167.34,332.25 160.35,332.25" />
      <polygon points="146.39,308.06 149.88,314.11 142.90,314.11" />
      <polygon points="149.88,314.11 153.37,320.16 146.39,320.16" />
      <polygon points="142.90,314.11 146.39,320.16 139.41,320.16" />
      <polygon points="153.37,320.16 156.86,326.20 149.88,326.20" />
      <polygon points="156.86,326.20 160.35,332.25 153.37,332.25" />
      <polygon points="149.88,326.20 153.37,332.25 146.39,332.25" />
      <polygon points="139.41,320.16 142.90,326.20 135.92,326.20" />
      <polygon points="142.90,326.20 146.39,332.25 139.41,332.25" />
      <polygon points="135.92,326.20 139.41,332.25 132.42,332.25" />
      <polygon points="244.14,332.25 247.63,338.30 240.65,338.30" />
      <polygon points="247.63,338.30 251.12,344.34 244.14,344.34" />
      <polygon points="240.65,338.30 244.14,344.34 237.16,344.34" />
      <polygon points="251.12,344.34 254.61,350.39 247.63,350.39" />
      <polygon points="254.61,350.39 258.11,356.44 251.12,356.44" />
      <polygon points="247.63,350.39 251.12,356.44 244.14,356.44" />
      <polygon points="237.16,344.34 240.65,350.39 233.67,350.39" />
      <polygon points="240.65,350.39 244.14,356.44 237.16,356.44" />
      <polygon points="233.67,350.39 237.16,356.44 230.18,356.44" />
      <polygon points="258.11,356.44 261.60,362.48 254.61,362.48" />
      <polygon points="261.60,362.48 265.09,368.53 258.11,368.53" />
      <polygon points="254.61,362.48 258.11,368.53 251.12,368.53" />
      <polygon points="265.09,368.53 268.58,374.58 261.60,374.58" />
      <polygon points="268.58,374.58 272.07,380.62 265.09,380.62" />
      <polygon points="261.60,374.58 265.09,380.62 258.11,380.62" />
      <polygon points="251.12,368.53 254.61,374.58 247.63,374.58" />
      <polygon points="254.61,374.58 258.11,380.62 251.12,380.62" />
      <polygon points="247.63,374.58 251.12,380.62 244.14,380.62" />
      <polygon points="230.18,356.44 233.67,362.48 226.69,362.48" />
      <polygon points="233.67,362.48 237.16,368.53 230.18,368.53" />
      <polygon points="226.69,362.48 230.18,368.53 223.19,368.53" />
      <polygon points="237.16,368.53 240.65,374.58 233.67,374.58" />
      <polygon points="240.65,374.58 244.14,380.62 237.16,380.62" />
      <polygon points="233.67,374.58 237.16,380.62 230.18,380.62" />
      <polygon points="223.19,368.53 226.69,374.58 219.70,374.58" />
      <polygon points="226.69,374.58 230.18,380.62 223.19,380.62" />
      <polygon points="219.70,374.58 223.19,380.62 216.21,380.62" />
      <polygon points="272.07,380.62 275.56,386.67 268.58,386.67" />
      <polygon points="275.56,386.67 279.05,392.72 272.07,392.72" />
      <polygon points="268.58,386.67 272.07,392.72 265.09,392.72" />
      <polygon points="279.05,392.72 282.54,398.77 275.56,398.77" />
      <polygon points="282.54,398.77 286.04,404.81 279.05,404.81" />
      <polygon points="275.56,398.77 279.05,404.81 272.07,404.81" />
      <polygon points="265.09,392.72 268.58,398.77 261.60,398.77" />
      <polygon points="268.58,398.77 272.07,404.81 265.09,404.81" />
      <polygon points="261.60,398.77 265.09,404.81 258.11,404.81" />
      <polygon points="286.04,404.81 289.53,410.86 282.54,410.86" />
      <polygon points="289.53,410.86 293.02,416.91 286.04,416.91" />
      <polygon points="282.54,410.86 286.04,416.91 279.05,416.91" />
      <polygon points="293.02,416.91 296.51,422.95 289.53,422.95" />
      <polygon points="296.51,422.95 300.00,429.00 293.02,429.00" />
      <polygon points="289.53,422.95 293.02,429.00 286.04,429.00" />
      <polygon points="279.05,416.91 282.54,422.95 275.56,422.95" />
      <polygon points="282.54,422.95 286.04,429.00 279.05,429.00" />
      <polygon points="275.56,422.95 279.05,429.00 272.07,429.00" />
      <polygon points="258.11,404.81 261.60,410.86 254.61,410.86" />
      <polygon points="261.60,410.86 265.09,416.91 258.11,416.91" />
      <polygon points="254.61,410.86 258.11,416.91 251.12,416.91" />
      <polygon points="265.09,416.91 268.58,422.95 261.60,422.95" />
      <polygon points="268.58,422.95 272.07,429.00 265.09,429.00" />
      <polygon points="261.60,422.95 265.09,429.00 258.11,429.00" />
      <polygon points="251.12,416.91 254.61,422.95 247.63,422.95" />
      <polygon points="254.61,422.95 258.11,429.00 251.12,429.00" />
      <polygon points="247.63,422.95 251.12,429.00 244.14,429.00" />
      <polygon points="216.21,380.62 219.70,386.67 212.72,386.67" />
      <polygon points="219.70,386.67 223.19,392.72 216.21,392.72" />
      <polygon points="212.72,386.67 216.21,392.72 209.23,392.72" />
      <polygon points="223.19,392.72 226.69,398.77 219.70,398.77" />
      <polygon points="226.69,398.77 230.18,404.81 223.19,404.81" />
      <polygon points="219.70,398.77 223.19,404.81 216.21,404.81" />
      <polygon points="209.23,392.72 212.72,398.77 205.74,398.77" />
      <polygon points="212.72,398.77 216.21,404.81 209.23,404.81" />
      <polygon points="205.74,398.77 209.23,404.81 202.25,404.81" />
      <polygon points="230.18,404.81 233.67,410.86 226.69,410.86" />
      <polygon points="233.67,410.86 237.16,416.91 230.18,416.91" />
      <polygon points="226.69,410.86 230.18,416.91 223.19,416.91" />
      <polygon points="237.16,416.91 240.65,422.95 233.67,422.95" />
      <polygon points="240.65,422.95 244.14,429.00 237.16,429.00" />
      <polygon points="233.67,422.95 237.16,429.00 230.18,429.00" />
      <polygon points="223.19,416.91 226.69,422.95 219.70,422.95" />
      <polygon points="226.69,422.95 230.18,429.00 223.19,429.00" />
      <polygon points="219.70,422.95 223.19,429.00 216.21,429.00" />
      <polygon points="202.25,404.81 205.74,410.86 198.76,410.86" />
      <polygon points="205.74,410.86 209.23,416.91 202.25,416.91" />
      <polygon points="198.76,410.86 202.25,416.91 195.27,416.91" />
      <polygon points="209.23,416.91 212.72,422.95 205.74,422.95" />
      <polygon points="212.72,422.95 216.21,429.00 209.23,429.00" />
      <polygon points="205.74,422.95 209.23,429.00 202.25,429.00" />
      <polygon points="195.27,416.91 198.76,422.95 191.77,422.95" />
      <polygon points="198.76,422.95 202.25,429.00 195.27,429.00" />
      <polygon points="191.77,422.95 195.27,429.00 188.28,429.00" />
      <polygon points="132.42,332.25 135.92,338.30 128.93,338.30" />
      <polygon points="135.92,338.30 139.41,344.34 132.42,344.34" />
      <polygon points="128.93,338.30 132.42,344.34 125.44,344.34" />
      <polygon points="139.41,344.34 142.90,350.39 135.92,350.39" />
      <polygon points="142.90,350.39 146.39,356.44 139.41,356.44" />
      <polygon points="135.92,350.39 139.41,356.44 132.42,356.44" />
      <polygon points="125.44,344.34 128.93,350.39 121.95,350.39" />
      <polygon points="128.93,350.39 132.42,356.44 125.44,356.44" />
      <polygon points="121.95,350.39 125.44,356.44 118.46,356.44" />
      <polygon points="146.39,356.44 149.88,362.48 142.90,362.48" />
      <polygon points="149.88,362.48 153.37,368.53 146.39,368.53" />
      <polygon points="142.90,362.48 146.39,368.53 139.41,368.53" />
      <polygon points="153.37,368.53 156.86,374.58 149.88,374.58" />
      <polygon points="156.86,374.58 160.35,380.63 153.37,380.63" />
      <polygon points="149.88,374.58 153.37,380.63 146.39,380.63" />
      <polygon points="139.41,368.53 142.90,374.58 135.92,374.58" />
      <polygon points="142.90,374.58 146.39,380.63 139.41,380.63" />
      <polygon points="135.92,374.58 139.41,380.63 132.42,380.63" />
      <polygon points="118.46,356.44 121.95,362.48 114.97,362.48" />
      <polygon points="121.95,362.48 125.44,368.53 118.46,368.53" />
      <polygon points="114.97,362.48 118.46,368.53 111.48,368.53" />
      <polygon points="125.44,368.53 128.93,374.58 121.95,374.58" />
      <polygon points="128.93,374.58 132.42,380.63 125.44,380.63" />
      <polygon points="121.95,374.58 125.44,380.63 118.46,380.63" />
      <polygon points="111.48,368.53 114.97,374.58 107.99,374.58" />
      <polygon points="114.97,374.58 118.46,380.63 111.48,380.63" />
      <polygon points="107.99,374.58 111.48,380.63 104.49,380.63" />
      <polygon points="160.35,380.63 163.84,386.67 156.86,386.67" />
      <polygon points="163.84,386.67 167.34,392.72 160.35,392.72" />
      <polygon points="156.86,386.67 160.35,392.72 153.37,392.72" />
      <polygon points="167.34,392.72 170.83,398.77 163.84,398.77" />
      <polygon points="170.83,398.77 174.32,404.81 167.34,404.81" />
      <polygon points="163.84,398.77 167.34,404.81 160.35,404.81" />
      <polygon points="153.37,392.72 156.86,398.77 149.88,398.77" />
      <polygon points="156.86,398.77 160.35,404.81 153.37,404.81" />
      <polygon points="149.88,398.77 153.37,404.81 146.39,404.81" />
      <polygon points="174.32,404.81 177.81,410.86 170.83,410.86" />
      <polygon points="177.81,410.86 181.30,416.91 174.32,416.91" />
      <polygon points="170.83,410.86 174.32,416.91 167.34,416.91" />
      <polygon points="181.30,416.91 184.79,422.95 177.81,422.95" />
      <polygon points="184.79,422.95 188.28,429.00 181.30,429.00" />
      <polygon points="177.81,422.95 181.30,429.00 174.32,429.00" />
      <polygon points="167.34,416.91 170.83,422.95 163.84,422.95" />
      <polygon points="170.83,422.95 174.32,429.00 167.34,429.00" />
      <polygon points="163.84,422.95 167.34,429.00 160.35,429.00" />
      <polygon points="146.39,404.81 149.88,410.86 142.90,410.86" />
      <polygon points="149.88,410.86 153.37,416.91 146.39,416.91" />
      <polygon points="142.90,410.86 146.39,416.91 139.41,416.91" />
      <polygon points="153.37,416.91 156.86,422.95 149.88,422.95" />
      <polygon points="156.86,422.95 160.35,429.00 153.37,429.00" />
      <polygon points="149.88,422.95 153.37,429.00 146.39,429.00" />
      <polygon points="139.41,416.91 142.90,422.95 135.92,422.95" />
      <polygon points="142.90,422.95 146.39,429.00 139.41,429.00" />
      <polygon points="135.92,422.95 139.41,429.00 132.42,429.00" />
      <polygon points="104.49,380.63 107.99,386.67 101.00,386.67" />
      <polygon points="107.99,386.67 111.48,392.72 104.49,392.72" />
      <polygon points="101.00,386.67 104.49,392.72 97.51,392.72" />
      <polygon points="111.48,392.72 114.97,398.77 107.99,398.77" />
      <polygon points="114.97,398.77 118.46,404.81 111.48,404.81" />
      <polygon points="107.99,398.77 111.48,404.81 104.49,404.81" />
      <polygon points="97.51,392.72 101.00,398.77 94.02,398.77" />
      <polygon points="101.00,398.77 104.49,404.81 97.51,404.81" />
      <polygon points="94.02,398.77 97.51,404.81 90.53,404.81" />
      <polygon points="118.46,404.81 121.95,410.86 114.97,410.86" />
      <polygon points="121.95,410.86 125.44,416.91 118.46,416.91" />
      <polygon points="114.97,410.86 118.46,416.91 111.48,416.91" />
      <polygon points="125.44,416.91 128.93,422.95 121.95,422.95" />
      <polygon points="128.93,422.95 132.42,429.00 125.44,429.00" />
      <polygon points="121.95,422.95 125.44,429.00 118.46,429.00" />
      <polygon points="111.48,416.91 114.97,422.95 107.99,422.95" />
      <polygon points="114.97,422.95 118.46,429.00 111.48,429.00" />
      <polygon points="107.99,422.95 111.48,429.00 104.49,429.00" />
      <polygon points="90.53,404.81 94.02,410.86 87.04,410.86" />
      <polygon points="94.02,410.86 97.51,416.91 90.53,416.91" />
      <polygon points="87.04,410.86 90.53,416.91 83.55,416.91" />
      <polygon points="97.51,416.91 101.00,422.95 94.02,422.95" />
      <polygon points="101.00,422.95 104.49,429.00 97.51,429.00" />
      <polygon points="94.02,422.95 97.51,429.00 90.53,429.00" />
      <polygon points="83.55,416.91 87.04,422.95 80.06,422.95" />
      <polygon points="87.04,422.95 90.53,429.00 83.55,429.00" />
      <polygon points="80.06,422.95 83.55,429.00 76.57,429.00" />
    </g>
    <animateTransform attributeName="transform" type="rotate" from="0 300.0 300.0" to="120 300.0 300.0" dur="12.0s" repeatCount="indefinite" />
  </g>

  <!-- Z/3 orbit (radius 0.4, forward) -->
  <g fill="#464b5f" fill-opacity="0.45">
    <circle cx="300.00" cy="60.00" r="3.5" />
    <circle cx="507.85" cy="420.00" r="3.5" />
    <circle cx="92.15" cy="420.00" r="3.5" />
    <animateTransform attributeName="transform" type="rotate" from="0 300.0 300.0" to="120 300.0 300.0" dur="12.0s" repeatCount="indefinite" />
  </g>

  <!-- Z/3 orbit (radius 0.22, reverse) -->
  <g fill="#464b5f" fill-opacity="0.45">
    <circle cx="300.00" cy="168.00" r="3.5" />
    <circle cx="414.32" cy="366.00" r="3.5" />
    <circle cx="185.68" cy="366.00" r="3.5" />
    <animateTransform attributeName="transform" type="rotate" from="0 300.0 300.0" to="-120 300.0 300.0" dur="12.0s" repeatCount="indefinite" />
  </g>

  <!-- Borromean rings: 3-slot mutual constraint -->
  <g id="borromean-under" fill="none" stroke-width="3">
    <circle cx="300.00" cy="258.75" r="75.00" stroke="#be4b41" stroke-opacity="0.40" />
    <circle cx="335.72" cy="320.62" r="75.00" stroke="#3c8c5f" stroke-opacity="0.40" />
    <circle cx="264.28" cy="320.62" r="75.00" stroke="#3c64a5" stroke-opacity="0.40" />
  </g>
  <g id="borromean-over" fill="none" stroke-width="3.2" stroke-linecap="round">
    <path d="M 235.05 221.25 A 75.00 75.00 0 0 1 364.95 221.25" stroke="#be4b41" stroke-opacity="0.92" />
    <path d="M 400.68 283.12 A 75.00 75.00 0 0 1 335.72 395.62" stroke="#3c8c5f" stroke-opacity="0.92" />
    <path d="M 264.28 395.62 A 75.00 75.00 0 0 1 199.32 283.13" stroke="#3c64a5" stroke-opacity="0.92" />
  </g>
  <g id="borromean-labels" fill="#3c3c46" font-family="Georgia, serif" font-size="18" text-anchor="middle" dominant-baseline="central">
    <text x="300.00" y="152.25">B</text>
    <text x="427.96" y="373.88">P</text>
    <text x="172.04" y="373.88">I</text>
  </g>

  <!-- A_0 forced unique stable point -->
  <g id="a0-center">
    <circle cx="300.0" cy="300.0" r="4" fill="#b48232">
      <animate attributeName="r" values="4;14;4" dur="4.0s" repeatCount="indefinite" />
      <animate attributeName="fill-opacity" values="0.55;0.08;0.55" dur="4.0s" repeatCount="indefinite" />
    </circle>
    <circle cx="300.0" cy="300.0" r="3.2" fill="#b48232" fill-opacity="0.95" />
    <text x="300.0" y="324.0" fill="#b48232" fill-opacity="0.8" font-family="Georgia, serif" font-style="italic" font-size="14" text-anchor="middle">A₀</text>
  </g>
</svg>
